<mxfile host="app.diagrams.net" modified="2021-12-16T09:24:12.696Z" agent="5.0 (Windows NT 10.0; Win64; x64) AppleWebKit/537.36 (KHTML, like Gecko) Chrome/96.0.4664.110 Safari/537.36 Edg/96.0.1054.57" etag="7PCNP75g9KSTfnX48Dc2" version="15.9.6" type="github">
  <diagram id="C5RBs43oDa-KdzZeNtuy" name="Page-1">
    <mxGraphModel dx="1422" dy="754" grid="1" gridSize="10" guides="1" tooltips="1" connect="1" arrows="1" fold="1" page="1" pageScale="1" pageWidth="827" pageHeight="1169" math="0" shadow="0">
      <root>
        <mxCell id="WIyWlLk6GJQsqaUBKTNV-0" />
        <mxCell id="WIyWlLk6GJQsqaUBKTNV-1" parent="WIyWlLk6GJQsqaUBKTNV-0" />
        <mxCell id="WIyWlLk6GJQsqaUBKTNV-2" value="" style="rounded=0;html=1;jettySize=auto;orthogonalLoop=1;fontSize=11;endArrow=block;endFill=0;endSize=8;strokeWidth=1;shadow=0;labelBackgroundColor=none;edgeStyle=orthogonalEdgeStyle;" parent="WIyWlLk6GJQsqaUBKTNV-1" source="WIyWlLk6GJQsqaUBKTNV-3" target="WIyWlLk6GJQsqaUBKTNV-6" edge="1">
          <mxGeometry relative="1" as="geometry" />
        </mxCell>
        <mxCell id="WIyWlLk6GJQsqaUBKTNV-3" value="业务员操作订单退款" style="rounded=1;whiteSpace=wrap;html=1;fontSize=12;glass=0;strokeWidth=1;shadow=0;" parent="WIyWlLk6GJQsqaUBKTNV-1" vertex="1">
          <mxGeometry x="340" y="10" width="120" height="40" as="geometry" />
        </mxCell>
        <mxCell id="WIyWlLk6GJQsqaUBKTNV-4" value="Yes" style="rounded=0;html=1;jettySize=auto;orthogonalLoop=1;fontSize=11;endArrow=block;endFill=0;endSize=8;strokeWidth=1;shadow=0;labelBackgroundColor=none;edgeStyle=orthogonalEdgeStyle;entryX=0.5;entryY=0;entryDx=0;entryDy=0;" parent="WIyWlLk6GJQsqaUBKTNV-1" source="WIyWlLk6GJQsqaUBKTNV-6" target="tjsFGggS4ZzHNe5WPNCT-2" edge="1">
          <mxGeometry y="20" relative="1" as="geometry">
            <mxPoint as="offset" />
            <mxPoint x="220" y="320" as="targetPoint" />
          </mxGeometry>
        </mxCell>
        <mxCell id="WIyWlLk6GJQsqaUBKTNV-5" value="No" style="edgeStyle=orthogonalEdgeStyle;rounded=0;html=1;jettySize=auto;orthogonalLoop=1;fontSize=11;endArrow=block;endFill=0;endSize=8;strokeWidth=1;shadow=0;labelBackgroundColor=none;" parent="WIyWlLk6GJQsqaUBKTNV-1" source="WIyWlLk6GJQsqaUBKTNV-6" target="WIyWlLk6GJQsqaUBKTNV-7" edge="1">
          <mxGeometry y="10" relative="1" as="geometry">
            <mxPoint as="offset" />
          </mxGeometry>
        </mxCell>
        <mxCell id="WIyWlLk6GJQsqaUBKTNV-6" value="订单是否已经出库？" style="rhombus;whiteSpace=wrap;html=1;shadow=0;fontFamily=Helvetica;fontSize=12;align=center;strokeWidth=1;spacing=6;spacingTop=-4;" parent="WIyWlLk6GJQsqaUBKTNV-1" vertex="1">
          <mxGeometry x="350" y="80" width="100" height="80" as="geometry" />
        </mxCell>
        <mxCell id="tjsFGggS4ZzHNe5WPNCT-29" style="edgeStyle=orthogonalEdgeStyle;rounded=0;orthogonalLoop=1;jettySize=auto;html=1;" edge="1" parent="WIyWlLk6GJQsqaUBKTNV-1" source="WIyWlLk6GJQsqaUBKTNV-7" target="tjsFGggS4ZzHNe5WPNCT-28">
          <mxGeometry relative="1" as="geometry" />
        </mxCell>
        <mxCell id="WIyWlLk6GJQsqaUBKTNV-7" value="业务员点击取消订单按钮" style="rounded=1;whiteSpace=wrap;html=1;fontSize=12;glass=0;strokeWidth=1;shadow=0;" parent="WIyWlLk6GJQsqaUBKTNV-1" vertex="1">
          <mxGeometry x="540" y="100" width="120" height="40" as="geometry" />
        </mxCell>
        <mxCell id="tjsFGggS4ZzHNe5WPNCT-17" style="edgeStyle=orthogonalEdgeStyle;rounded=0;orthogonalLoop=1;jettySize=auto;html=1;entryX=0.5;entryY=0;entryDx=0;entryDy=0;" edge="1" parent="WIyWlLk6GJQsqaUBKTNV-1" source="tjsFGggS4ZzHNe5WPNCT-0" target="tjsFGggS4ZzHNe5WPNCT-15">
          <mxGeometry relative="1" as="geometry" />
        </mxCell>
        <mxCell id="tjsFGggS4ZzHNe5WPNCT-0" value="系统N+1天后退款、退运费&lt;br&gt;已使用金币、优惠券等不退还" style="rounded=1;whiteSpace=wrap;html=1;fontSize=12;glass=0;strokeWidth=1;shadow=0;" vertex="1" parent="WIyWlLk6GJQsqaUBKTNV-1">
          <mxGeometry x="522.5" y="370" width="155" height="40" as="geometry" />
        </mxCell>
        <mxCell id="tjsFGggS4ZzHNe5WPNCT-4" value="" style="edgeStyle=orthogonalEdgeStyle;rounded=0;orthogonalLoop=1;jettySize=auto;html=1;" edge="1" parent="WIyWlLk6GJQsqaUBKTNV-1" source="tjsFGggS4ZzHNe5WPNCT-2" target="tjsFGggS4ZzHNe5WPNCT-3">
          <mxGeometry relative="1" as="geometry" />
        </mxCell>
        <mxCell id="tjsFGggS4ZzHNe5WPNCT-2" value="业务员申请订单退货退款（与主管沟通后客户确认退款）" style="rounded=1;whiteSpace=wrap;html=1;" vertex="1" parent="WIyWlLk6GJQsqaUBKTNV-1">
          <mxGeometry x="340" y="210" width="120" height="60" as="geometry" />
        </mxCell>
        <mxCell id="tjsFGggS4ZzHNe5WPNCT-6" value="" style="edgeStyle=orthogonalEdgeStyle;rounded=0;orthogonalLoop=1;jettySize=auto;html=1;" edge="1" parent="WIyWlLk6GJQsqaUBKTNV-1" source="tjsFGggS4ZzHNe5WPNCT-3" target="tjsFGggS4ZzHNe5WPNCT-7">
          <mxGeometry relative="1" as="geometry">
            <mxPoint x="220" y="560" as="targetPoint" />
          </mxGeometry>
        </mxCell>
        <mxCell id="tjsFGggS4ZzHNe5WPNCT-3" value="部长选择需要退货退款的产品，并生成退货单&lt;br&gt;销售订单状态变为退款中：" style="whiteSpace=wrap;html=1;rounded=1;" vertex="1" parent="WIyWlLk6GJQsqaUBKTNV-1">
          <mxGeometry x="310" y="330" width="180" height="60" as="geometry" />
        </mxCell>
        <mxCell id="tjsFGggS4ZzHNe5WPNCT-10" value="审批不通过" style="edgeStyle=orthogonalEdgeStyle;rounded=0;orthogonalLoop=1;jettySize=auto;html=1;" edge="1" parent="WIyWlLk6GJQsqaUBKTNV-1" source="tjsFGggS4ZzHNe5WPNCT-7" target="tjsFGggS4ZzHNe5WPNCT-9">
          <mxGeometry relative="1" as="geometry" />
        </mxCell>
        <mxCell id="tjsFGggS4ZzHNe5WPNCT-12" value="审批通过" style="edgeStyle=orthogonalEdgeStyle;rounded=0;orthogonalLoop=1;jettySize=auto;html=1;" edge="1" parent="WIyWlLk6GJQsqaUBKTNV-1" source="tjsFGggS4ZzHNe5WPNCT-7" target="tjsFGggS4ZzHNe5WPNCT-11">
          <mxGeometry relative="1" as="geometry" />
        </mxCell>
        <mxCell id="tjsFGggS4ZzHNe5WPNCT-7" value="客服确认退款" style="rhombus;whiteSpace=wrap;html=1;" vertex="1" parent="WIyWlLk6GJQsqaUBKTNV-1">
          <mxGeometry x="360" y="500" width="80" height="80" as="geometry" />
        </mxCell>
        <mxCell id="tjsFGggS4ZzHNe5WPNCT-16" value="" style="edgeStyle=orthogonalEdgeStyle;rounded=0;orthogonalLoop=1;jettySize=auto;html=1;" edge="1" parent="WIyWlLk6GJQsqaUBKTNV-1" source="tjsFGggS4ZzHNe5WPNCT-9" target="tjsFGggS4ZzHNe5WPNCT-15">
          <mxGeometry relative="1" as="geometry" />
        </mxCell>
        <mxCell id="tjsFGggS4ZzHNe5WPNCT-9" value="退货单取消，订单状态改回已出库" style="whiteSpace=wrap;html=1;" vertex="1" parent="WIyWlLk6GJQsqaUBKTNV-1">
          <mxGeometry x="510" y="510" width="120" height="60" as="geometry" />
        </mxCell>
        <mxCell id="tjsFGggS4ZzHNe5WPNCT-14" value="" style="edgeStyle=orthogonalEdgeStyle;rounded=0;orthogonalLoop=1;jettySize=auto;html=1;entryX=0.5;entryY=0;entryDx=0;entryDy=0;" edge="1" parent="WIyWlLk6GJQsqaUBKTNV-1" source="tjsFGggS4ZzHNe5WPNCT-11" target="tjsFGggS4ZzHNe5WPNCT-23">
          <mxGeometry relative="1" as="geometry">
            <mxPoint x="70" y="840" as="targetPoint" />
          </mxGeometry>
        </mxCell>
        <mxCell id="tjsFGggS4ZzHNe5WPNCT-11" value="业务员与客户确认后填写退货快递单，&lt;br&gt;同时退货单状态变为待入库" style="whiteSpace=wrap;html=1;" vertex="1" parent="WIyWlLk6GJQsqaUBKTNV-1">
          <mxGeometry x="320" y="660" width="160" height="60" as="geometry" />
        </mxCell>
        <mxCell id="tjsFGggS4ZzHNe5WPNCT-19" value="数量正确" style="edgeStyle=orthogonalEdgeStyle;rounded=0;orthogonalLoop=1;jettySize=auto;html=1;exitX=1;exitY=0.5;exitDx=0;exitDy=0;" edge="1" parent="WIyWlLk6GJQsqaUBKTNV-1" source="tjsFGggS4ZzHNe5WPNCT-23" target="tjsFGggS4ZzHNe5WPNCT-18">
          <mxGeometry relative="1" as="geometry">
            <mxPoint x="160" y="930" as="sourcePoint" />
          </mxGeometry>
        </mxCell>
        <mxCell id="tjsFGggS4ZzHNe5WPNCT-15" value="流程结束" style="ellipse;whiteSpace=wrap;html=1;" vertex="1" parent="WIyWlLk6GJQsqaUBKTNV-1">
          <mxGeometry x="690" y="510" width="120" height="60" as="geometry" />
        </mxCell>
        <mxCell id="tjsFGggS4ZzHNe5WPNCT-21" value="" style="edgeStyle=orthogonalEdgeStyle;rounded=0;orthogonalLoop=1;jettySize=auto;html=1;" edge="1" parent="WIyWlLk6GJQsqaUBKTNV-1" source="tjsFGggS4ZzHNe5WPNCT-18" target="tjsFGggS4ZzHNe5WPNCT-20">
          <mxGeometry relative="1" as="geometry" />
        </mxCell>
        <mxCell id="tjsFGggS4ZzHNe5WPNCT-18" value="主管审批退货单进行退款，退货单变为待退款" style="rounded=1;whiteSpace=wrap;html=1;" vertex="1" parent="WIyWlLk6GJQsqaUBKTNV-1">
          <mxGeometry x="540" y="785" width="120" height="60" as="geometry" />
        </mxCell>
        <mxCell id="tjsFGggS4ZzHNe5WPNCT-22" style="edgeStyle=orthogonalEdgeStyle;rounded=0;orthogonalLoop=1;jettySize=auto;html=1;" edge="1" parent="WIyWlLk6GJQsqaUBKTNV-1" source="tjsFGggS4ZzHNe5WPNCT-20" target="tjsFGggS4ZzHNe5WPNCT-15">
          <mxGeometry relative="1" as="geometry" />
        </mxCell>
        <mxCell id="tjsFGggS4ZzHNe5WPNCT-20" value="系统N+1天后退款给用户（不退运费），退货单变为已退款" style="shape=parallelogram;perimeter=parallelogramPerimeter;whiteSpace=wrap;html=1;fixedSize=1;rounded=1;" vertex="1" parent="WIyWlLk6GJQsqaUBKTNV-1">
          <mxGeometry x="690" y="785" width="120" height="60" as="geometry" />
        </mxCell>
        <mxCell id="tjsFGggS4ZzHNe5WPNCT-26" value="数量不正确" style="edgeStyle=orthogonalEdgeStyle;rounded=0;orthogonalLoop=1;jettySize=auto;html=1;" edge="1" parent="WIyWlLk6GJQsqaUBKTNV-1" source="tjsFGggS4ZzHNe5WPNCT-23" target="tjsFGggS4ZzHNe5WPNCT-25">
          <mxGeometry relative="1" as="geometry" />
        </mxCell>
        <mxCell id="tjsFGggS4ZzHNe5WPNCT-23" value="仓库收到货物，清点数量？" style="rhombus;whiteSpace=wrap;html=1;" vertex="1" parent="WIyWlLk6GJQsqaUBKTNV-1">
          <mxGeometry x="350" y="770" width="100" height="90" as="geometry" />
        </mxCell>
        <mxCell id="tjsFGggS4ZzHNe5WPNCT-33" style="edgeStyle=orthogonalEdgeStyle;rounded=0;orthogonalLoop=1;jettySize=auto;html=1;" edge="1" parent="WIyWlLk6GJQsqaUBKTNV-1" source="tjsFGggS4ZzHNe5WPNCT-25" target="tjsFGggS4ZzHNe5WPNCT-32">
          <mxGeometry relative="1" as="geometry" />
        </mxCell>
        <mxCell id="tjsFGggS4ZzHNe5WPNCT-25" value="入库失败，继续等待入库（人工介入）" style="rounded=1;whiteSpace=wrap;html=1;" vertex="1" parent="WIyWlLk6GJQsqaUBKTNV-1">
          <mxGeometry x="340" y="1000" width="120" height="60" as="geometry" />
        </mxCell>
        <mxCell id="tjsFGggS4ZzHNe5WPNCT-30" value="审批通过" style="edgeStyle=orthogonalEdgeStyle;rounded=0;orthogonalLoop=1;jettySize=auto;html=1;entryX=0.5;entryY=0;entryDx=0;entryDy=0;" edge="1" parent="WIyWlLk6GJQsqaUBKTNV-1" source="tjsFGggS4ZzHNe5WPNCT-28" target="tjsFGggS4ZzHNe5WPNCT-0">
          <mxGeometry relative="1" as="geometry" />
        </mxCell>
        <mxCell id="tjsFGggS4ZzHNe5WPNCT-31" value="审批不通过" style="edgeStyle=orthogonalEdgeStyle;rounded=0;orthogonalLoop=1;jettySize=auto;html=1;entryX=1;entryY=0;entryDx=0;entryDy=0;" edge="1" parent="WIyWlLk6GJQsqaUBKTNV-1" source="tjsFGggS4ZzHNe5WPNCT-28" target="tjsFGggS4ZzHNe5WPNCT-15">
          <mxGeometry relative="1" as="geometry" />
        </mxCell>
        <mxCell id="tjsFGggS4ZzHNe5WPNCT-28" value="主管审批" style="rhombus;whiteSpace=wrap;html=1;" vertex="1" parent="WIyWlLk6GJQsqaUBKTNV-1">
          <mxGeometry x="560" y="180" width="80" height="80" as="geometry" />
        </mxCell>
        <mxCell id="tjsFGggS4ZzHNe5WPNCT-35" value="修改退款单退货数量" style="edgeStyle=orthogonalEdgeStyle;rounded=0;orthogonalLoop=1;jettySize=auto;html=1;" edge="1" parent="WIyWlLk6GJQsqaUBKTNV-1" source="tjsFGggS4ZzHNe5WPNCT-32" target="tjsFGggS4ZzHNe5WPNCT-34">
          <mxGeometry relative="1" as="geometry" />
        </mxCell>
        <mxCell id="tjsFGggS4ZzHNe5WPNCT-40" value="让客户继续补件" style="edgeStyle=orthogonalEdgeStyle;rounded=0;orthogonalLoop=1;jettySize=auto;html=1;entryX=0.5;entryY=1;entryDx=0;entryDy=0;" edge="1" parent="WIyWlLk6GJQsqaUBKTNV-1" source="tjsFGggS4ZzHNe5WPNCT-32" target="tjsFGggS4ZzHNe5WPNCT-39">
          <mxGeometry relative="1" as="geometry" />
        </mxCell>
        <mxCell id="tjsFGggS4ZzHNe5WPNCT-32" value="处理方式" style="rhombus;whiteSpace=wrap;html=1;" vertex="1" parent="WIyWlLk6GJQsqaUBKTNV-1">
          <mxGeometry x="180" y="990" width="80" height="80" as="geometry" />
        </mxCell>
        <mxCell id="tjsFGggS4ZzHNe5WPNCT-38" style="edgeStyle=orthogonalEdgeStyle;rounded=0;orthogonalLoop=1;jettySize=auto;html=1;exitX=0.5;exitY=0;exitDx=0;exitDy=0;" edge="1" parent="WIyWlLk6GJQsqaUBKTNV-1" source="tjsFGggS4ZzHNe5WPNCT-34">
          <mxGeometry relative="1" as="geometry">
            <mxPoint x="375" y="790" as="targetPoint" />
            <Array as="points">
              <mxPoint x="70" y="790" />
            </Array>
          </mxGeometry>
        </mxCell>
        <mxCell id="tjsFGggS4ZzHNe5WPNCT-34" value="客服修改退货数量" style="whiteSpace=wrap;html=1;" vertex="1" parent="WIyWlLk6GJQsqaUBKTNV-1">
          <mxGeometry x="10" y="880" width="120" height="60" as="geometry" />
        </mxCell>
        <mxCell id="tjsFGggS4ZzHNe5WPNCT-41" style="edgeStyle=orthogonalEdgeStyle;rounded=0;orthogonalLoop=1;jettySize=auto;html=1;entryX=0;entryY=0.5;entryDx=0;entryDy=0;" edge="1" parent="WIyWlLk6GJQsqaUBKTNV-1" source="tjsFGggS4ZzHNe5WPNCT-39" target="tjsFGggS4ZzHNe5WPNCT-23">
          <mxGeometry relative="1" as="geometry">
            <Array as="points">
              <mxPoint x="220" y="815" />
            </Array>
          </mxGeometry>
        </mxCell>
        <mxCell id="tjsFGggS4ZzHNe5WPNCT-39" value="业务员让客户补货后，继续添加退货的快递单" style="rounded=1;whiteSpace=wrap;html=1;" vertex="1" parent="WIyWlLk6GJQsqaUBKTNV-1">
          <mxGeometry x="160" y="880" width="120" height="60" as="geometry" />
        </mxCell>
      </root>
    </mxGraphModel>
  </diagram>
</mxfile>
